<?xml version="1.0" standalone="no"?>
<!DOCTYPE svg PUBLIC "-//W3C//DTD SVG 20010904//EN"
 "http://www.w3.org/TR/2001/REC-SVG-20010904/DTD/svg10.dtd">
<svg version="1.0" xmlns="http://www.w3.org/2000/svg"
 width="1920.000000pt" height="1920.000000pt" viewBox="0 0 1920.000000 1920.000000"
 preserveAspectRatio="xMidYMid meet">
<metadata>
Created by potrace 1.14, written by Peter Selinger 2001-2017
</metadata>
<g transform="translate(0.000000,1920.000000) scale(0.100000,-0.100000)"
fill="#000000" stroke="none">
<path d="M4973 11450 l-750 -2000 474 2 475 3 219 585 c120 322 262 702 315
845 54 143 103 271 110 285 12 23 13 20 9 -30 -3 -30 -16 -228 -30 -440 -14
-212 -27 -419 -30 -460 -3 -41 -14 -212 -25 -380 -11 -168 -22 -329 -25 -357
l-5 -53 512 0 513 0 745 1987 c410 1092 746 1992 748 2000 3 11 -77 13 -470
11 l-473 -3 -257 -685 c-342 -911 -400 -1064 -406 -1070 -4 -5 3 177 14 310 2
36 20 306 39 600 40 617 43 668 51 773 l6 77 -504 0 -505 0 -750 -2000z"/>
<path d="M8288 13273 c-74 -202 -713 -1905 -848 -2263 -181 -479 -573 -1526
-578 -1543 -4 -16 21 -17 469 -15 l473 3 238 635 c131 349 273 730 317 845
106 281 753 2005 851 2270 43 116 81 218 85 228 7 16 -19 17 -467 17 l-475 0
-65 -177z"/>
<path d="M9457 13443 c-7 -11 -155 -404 -330 -878 -196 -527 -553 -1488 -809
-2175 -116 -311 -239 -641 -274 -735 -34 -93 -65 -178 -69 -187 -7 -17 19 -18
467 -18 l475 0 86 228 c47 125 151 400 232 612 81 212 180 475 221 585 42 109
79 206 84 215 6 10 10 -8 10 -55 0 -38 9 -385 20 -770 11 -385 20 -726 20
-757 l0 -58 663 -1 c412 0 654 -4 642 -10 -11 -5 -168 -49 -350 -98 -484 -131
-1233 -334 -1780 -482 -990 -269 -1184 -321 -1730 -469 -308 -83 -681 -185
-830 -225 -473 -130 -576 -150 -835 -161 -411 -18 -803 85 -1098 288 -104 73
-247 217 -315 320 -160 240 -230 489 -230 813 0 198 18 347 68 551 55 224 173
550 265 734 49 98 46 109 -12 40 -952 -1131 -1582 -2207 -1762 -3012 -72 -321
-77 -633 -16 -875 83 -321 294 -582 651 -804 571 -355 1280 -399 2154 -134
477 145 865 304 3340 1370 226 97 502 216 615 265 113 48 358 154 545 235 187
81 567 245 845 365 278 120 678 293 890 385 212 92 417 181 455 197 161 70
895 387 1220 528 193 84 411 178 485 210 74 32 293 126 485 210 696 302 1364
592 1695 735 840 363 1240 537 1270 554 41 22 55 42 47 65 -11 28 -69 19 -370
-63 -161 -44 -485 -132 -722 -196 -236 -64 -619 -168 -850 -230 -231 -63 -638
-173 -905 -245 -267 -72 -631 -171 -810 -220 -547 -149 -632 -171 -640 -168
-4 2 16 68 45 148 l53 145 -550 3 c-531 2 -549 3 -543 21 3 10 83 227 179 482
l173 464 455 3 456 2 55 148 c31 81 94 248 140 372 l84 225 -453 3 -453 2 34
93 c42 117 252 683 267 720 l10 27 478 0 478 0 28 73 c15 39 40 105 56 145 46
118 168 443 168 447 0 3 -648 5 -1440 5 l-1440 0 -24 -27 c-35 -41 -109 -131
-321 -388 -449 -545 -618 -750 -621 -754 -20 -23 4 49 100 299 259 677 319
833 323 851 5 18 -9 19 -470 19 -262 0 -478 -3 -480 -7z m1842 -1673 c-324
-866 -628 -1679 -676 -1807 -48 -128 -88 -231 -89 -230 -2 1 -14 389 -28 862
-14 473 -28 937 -31 1030 l-6 170 123 136 c68 74 303 333 523 574 220 242 483
530 584 642 102 111 186 201 187 200 2 -2 -262 -711 -587 -1577z"/>
</g>
</svg>
